<svg id="圖層_1" data-name="圖層 1" xmlns="http://www.w3.org/2000/svg" viewBox="0 0 212 73"><defs><style>.cls-1{fill:#fff;}</style></defs><title>onelab-logo-w</title><polygon class="cls-1" points="198.51 17.57 200.57 17.57 200.57 22.56 202.1 22.56 202.1 17.57 204.16 17.57 204.16 16.38 198.51 16.38 198.51 17.57"/><polygon class="cls-1" points="211.46 16.38 210.06 16.38 208.41 20.06 206.76 16.38 205.29 16.38 204.75 22.56 206.25 22.56 206.48 18.46 207.84 21.77 208.91 21.77 210.28 18.46 210.5 22.56 212 22.56 211.46 16.38"/><path class="cls-1" d="M32.68,14.72l5-5.2A11.32,11.32,0,0,0,35.3,7.58a12.34,12.34,0,0,0-2.73-1.39l-2.74,6.72a19.93,19.93,0,0,1,2.85,1.81"/><path class="cls-1" d="M7.85,12.91,5.12,6.19A12.38,12.38,0,0,0,2.38,7.58,11.32,11.32,0,0,0,0,9.52l5,5.2a19.09,19.09,0,0,1,2.85-1.81"/><path class="cls-1" d="M18.84,10.34q.86,0,1.68.06l1.37-7.13a12,12,0,0,0-3.05-.33,12.06,12.06,0,0,0-3.05.33l1.37,7.13q.82-.06,1.68-.06"/><path class="cls-1" d="M18.84,15.41c-11,0-17.16,7.82-17.16,17.45S7.84,50.31,18.84,50.31,36,42.5,36,32.86,29.85,15.41,18.84,15.41m0,26.71c-4.56,0-7.11-4.14-7.11-9.26s2.55-9.26,7.11-9.26S26,27.75,26,32.86s-2.55,9.26-7.11,9.26"/><path class="cls-1" d="M90.34,15.41c-10.1,0-16.71,6.72-16.71,17.3,0,10.77,6.53,17.6,17.88,17.6a32.16,32.16,0,0,0,13.43-2.48l-2.14-7.4a23.18,23.18,0,0,1-9.63,1.82c-6.4,0-8.69-2.84-9.49-6.24h22.66c1.29-13.67-5.27-20.6-16-20.6M83.48,29.54c.6-3.26,2.63-6.34,7.06-6.34,4.15,0,6.07,2.22,6.43,6.34Z"/><path class="cls-1" d="M53.89,15.41a48.85,48.85,0,0,0-14.11,2.14v32h9.93V23.7a19.41,19.41,0,0,1,4.4-.62c3.6,0,6,1.34,6,7.89V49.55H70V31.25C70,21,65.27,15.41,53.89,15.41"/><path class="cls-1" d="M124.37,50.21a23.5,23.5,0,0,1-6.7-.89A10,10,0,0,1,113.61,47a7.66,7.66,0,0,1-2-3.62A19.54,19.54,0,0,1,111,38.6V1.85L120.49.32V36.69a13.16,13.16,0,0,0,.19,2.29,3.92,3.92,0,0,0,.73,1.71A3.77,3.77,0,0,0,123,41.83a8.34,8.34,0,0,0,2.73.57Z"/><path class="cls-1" d="M143.16,15.3a21.72,21.72,0,0,1,7,1A10.92,10.92,0,0,1,154.62,19,10.15,10.15,0,0,1,157,23.3a21.53,21.53,0,0,1,.7,5.65V48.63q-2,.43-5.65,1a54.69,54.69,0,0,1-8.76.6,27.76,27.76,0,0,1-5.87-.57,12.66,12.66,0,0,1-4.54-1.87A8.55,8.55,0,0,1,130,44.44a11.7,11.7,0,0,1-1-5.15,9.7,9.7,0,0,1,1.18-4.95,9,9,0,0,1,3.14-3.23,14,14,0,0,1,4.51-1.75,25.16,25.16,0,0,1,5.26-.54,31.36,31.36,0,0,1,3.27.16,16.36,16.36,0,0,1,2.32.41v-.88a5.27,5.27,0,0,0-1.46-3.88q-1.47-1.45-5.08-1.46a32.73,32.73,0,0,0-4.76.35,20.46,20.46,0,0,0-4.06,1l-1.21-7.62q.82-.26,2.07-.54c.82-.19,1.72-.36,2.69-.51s2-.27,3.08-.38,2.17-.16,3.27-.16M143.92,43c.93,0,1.82,0,2.67-.07a17,17,0,0,0,2-.19V35.55c-.38-.08-1-.17-1.71-.25a18.42,18.42,0,0,0-4.61,0,6.55,6.55,0,0,0-2.06.6,3.6,3.6,0,0,0-1.4,1.21,3.42,3.42,0,0,0-.5,1.9,3.23,3.23,0,0,0,1.49,3.08,8.24,8.24,0,0,0,4.09.86"/><path class="cls-1" d="M194.15,32.88A21.18,21.18,0,0,1,193,40.12a15.19,15.19,0,0,1-3.39,5.52,14.83,14.83,0,0,1-5.46,3.52,20.39,20.39,0,0,1-7.36,1.24c-1.15,0-2.34,0-3.59-.16s-2.48-.24-3.68-.41-2.36-.37-3.46-.6-2.07-.48-2.92-.73V1.85L172.57.32V17a18.21,18.21,0,0,1,3.3-1.08,17.18,17.18,0,0,1,3.68-.38,15.13,15.13,0,0,1,6.28,1.24,12.4,12.4,0,0,1,4.57,3.52,15.81,15.81,0,0,1,2.79,5.49,24.87,24.87,0,0,1,1,7.14m-9.65-.25q0-9.14-6.73-9.14a11.41,11.41,0,0,0-2.89.38,8.37,8.37,0,0,0-2.31.95V42c.46.09,1.05.16,1.77.23s1.5.09,2.35.09a6.81,6.81,0,0,0,5.84-2.66,11.62,11.62,0,0,0,2-7"/><path class="cls-1" d="M15.78,62.54A7.32,7.32,0,0,1,15.4,65a5.21,5.21,0,0,1-1.11,1.92,4.78,4.78,0,0,1-1.79,1.25,6.13,6.13,0,0,1-2.41.45,6.14,6.14,0,0,1-2.42-.45,4.78,4.78,0,0,1-1.79-1.25A5.21,5.21,0,0,1,4.77,65a7.59,7.59,0,0,1-.38-2.45,7.67,7.67,0,0,1,.38-2.45,5.38,5.38,0,0,1,1.11-1.92,5,5,0,0,1,1.79-1.25,6.33,6.33,0,0,1,2.42-.44,6.31,6.31,0,0,1,2.41.44,5,5,0,0,1,1.79,1.25,5.38,5.38,0,0,1,1.11,1.92A7.41,7.41,0,0,1,15.78,62.54Zm-2.21,0a5.8,5.8,0,0,0-.26-1.86,3.89,3.89,0,0,0-.72-1.34,2.9,2.9,0,0,0-1.11-.79,3.51,3.51,0,0,0-1.39-.26,3.53,3.53,0,0,0-1.4.26,2.8,2.8,0,0,0-1.1.79,3.9,3.9,0,0,0-.73,1.34,6.1,6.1,0,0,0-.26,1.86,6.16,6.16,0,0,0,.26,1.87,3.85,3.85,0,0,0,.73,1.33,2.8,2.8,0,0,0,1.1.79,3.74,3.74,0,0,0,2.79,0,2.9,2.9,0,0,0,1.11-.79,3.84,3.84,0,0,0,.72-1.33A5.87,5.87,0,0,0,13.57,62.54Z"/><path class="cls-1" d="M24.6,62.14a36.7,36.7,0,0,1,2,3.18h.06c-.07-1.52-.11-2.63-.11-3.32V56.7h2.15V68.39H26.49L22.68,63c-.67-.93-1.36-2-2.08-3.24h-.05c.07,1.43.1,2.54.1,3.33v5.29H18.51V56.7h2.24Z"/><path class="cls-1" d="M34.12,66.6h5.76v1.79H32V56.7h7.58v1.79H34.12v3h4.67V63.3H34.12Z"/><path class="cls-1" d="M42.42,68.39V55.73h2.07V68.39Z"/><path class="cls-1" d="M52.28,67.49h0a4,4,0,0,1-.42.38,3.85,3.85,0,0,1-.56.36,2.93,2.93,0,0,1-.7.28,3.15,3.15,0,0,1-.83.1,3.23,3.23,0,0,1-1.13-.19,2.41,2.41,0,0,1-.9-.54,2.63,2.63,0,0,1-.59-.86,3.12,3.12,0,0,1,0-2.35,2.48,2.48,0,0,1,.69-.91,3.06,3.06,0,0,1,1.07-.58A4.54,4.54,0,0,1,50.29,63a7.31,7.31,0,0,1,1.82.23v-.34a1.56,1.56,0,0,0-.1-.57,1.3,1.3,0,0,0-.32-.49,1.71,1.71,0,0,0-.58-.34,2.77,2.77,0,0,0-.88-.13,6,6,0,0,0-1.26.14,12.09,12.09,0,0,0-1.36.42V60.3A6.74,6.74,0,0,1,49,59.87a7.93,7.93,0,0,1,1.5-.16,5.23,5.23,0,0,1,1.62.23,3.31,3.31,0,0,1,1.16.63,2.34,2.34,0,0,1,.7.93,2.94,2.94,0,0,1,.24,1.19v3.19c0,.56,0,1,0,1.44s0,.76,0,1.07H52.37Zm-.17-2.71c-.2,0-.42-.09-.68-.12a4.9,4.9,0,0,0-.77-.06,2.09,2.09,0,0,0-1.2.3,1,1,0,0,0-.44.92,1.16,1.16,0,0,0,.1.51.85.85,0,0,0,.27.35,1.22,1.22,0,0,0,.39.21,1.55,1.55,0,0,0,.48.07,2.35,2.35,0,0,0,.6-.08,3.89,3.89,0,0,0,.51-.21,2.22,2.22,0,0,0,.42-.29,3.19,3.19,0,0,0,.32-.3Z"/><path class="cls-1" d="M65.1,64a5.76,5.76,0,0,1-.33,2,4.21,4.21,0,0,1-.87,1.45,3.39,3.39,0,0,1-1.21.84,3.45,3.45,0,0,1-1.36.28,2.88,2.88,0,0,1-.86-.12,2.63,2.63,0,0,1-.68-.29,2.73,2.73,0,0,1-.48-.36,4.12,4.12,0,0,1-.31-.35h0l-.2.9H57.05q0-.37,0-.93c0-.37,0-.72,0-1V55.73h2.07V60c0,.22,0,.38,0,.5h0a3.23,3.23,0,0,1,.44-.27,3.56,3.56,0,0,1,.52-.24,2.63,2.63,0,0,1,.6-.16,3,3,0,0,1,.68-.07,3.88,3.88,0,0,1,1.38.26,3.22,3.22,0,0,1,1.19.79,3.77,3.77,0,0,1,.83,1.35A5.57,5.57,0,0,1,65.1,64ZM63,64.12a4.58,4.58,0,0,0-.19-1.37,2.13,2.13,0,0,0-.51-.87,1.52,1.52,0,0,0-.64-.41,2.29,2.29,0,0,0-.67-.11,2.58,2.58,0,0,0-.93.19,3.19,3.19,0,0,0-.86.49v4.05a4.23,4.23,0,0,0,.3.3,3.27,3.27,0,0,0,.41.28,3.48,3.48,0,0,0,.48.21,2,2,0,0,0,.56.08,1.8,1.8,0,0,0,.89-.21,1.77,1.77,0,0,0,.64-.58,2.89,2.89,0,0,0,.39-.89A5.21,5.21,0,0,0,63,64.12Z"/><path class="cls-1" d="M75.34,68.39H73.2v-9.9H69.42V56.7h9.69v1.79H75.34Z"/><path class="cls-1" d="M84.18,66.94a7,7,0,0,0,1.26-.12,9.69,9.69,0,0,0,1.33-.35v1.65a5.71,5.71,0,0,1-1.24.33,8.73,8.73,0,0,1-1.72.16,6.36,6.36,0,0,1-1.71-.23,3.83,3.83,0,0,1-1.41-.75,3.5,3.5,0,0,1-1-1.34,4.92,4.92,0,0,1-.36-2,5.67,5.67,0,0,1,.33-2,4.35,4.35,0,0,1,.89-1.43A3.67,3.67,0,0,1,81.89,60a4,4,0,0,1,1.49-.29,4.42,4.42,0,0,1,1.48.25,3,3,0,0,1,1.17.77,3.68,3.68,0,0,1,.77,1.35,6.2,6.2,0,0,1,.27,2c0,.29,0,.53,0,.74H81.5a2.34,2.34,0,0,0,.26,1,1.78,1.78,0,0,0,.57.67,2.26,2.26,0,0,0,.83.38A4.08,4.08,0,0,0,84.18,66.94Zm-.83-5.61a1.56,1.56,0,0,0-.7.14,1.74,1.74,0,0,0-.53.39,1.85,1.85,0,0,0-.35.59,2.67,2.67,0,0,0-.18.7h3.33a2.28,2.28,0,0,0-.1-.7,1.93,1.93,0,0,0-.3-.59,1.42,1.42,0,0,0-1.17-.53Z"/><path class="cls-1" d="M95.55,68.21a5.32,5.32,0,0,1-1,.28,5.81,5.81,0,0,1-1.2.12,5.57,5.57,0,0,1-1.71-.26,3.84,3.84,0,0,1-1.39-.8,3.6,3.6,0,0,1-.94-1.35A4.86,4.86,0,0,1,89,64.29a5.1,5.1,0,0,1,.39-2.09,3.9,3.9,0,0,1,1-1.42A4,4,0,0,1,91.83,60a5,5,0,0,1,1.54-.26,6.52,6.52,0,0,1,1.1.1,5,5,0,0,1,1,.28v1.68a5.23,5.23,0,0,0-.82-.26,4,4,0,0,0-.93-.1,3,3,0,0,0-1,.15,2.14,2.14,0,0,0-1.36,1.37,3.87,3.87,0,0,0,0,2.36,2.43,2.43,0,0,0,.46.84,2.12,2.12,0,0,0,.77.57,2.67,2.67,0,0,0,1.1.21,4.2,4.2,0,0,0,1-.11,7.38,7.38,0,0,0,.87-.28Z"/><path class="cls-1" d="M99.94,59.19c0,.44,0,.8,0,1.08a7.62,7.62,0,0,1-.07.76h0a3.94,3.94,0,0,1,.45-.49,3.14,3.14,0,0,1,.59-.42,2.93,2.93,0,0,1,.72-.29,3.16,3.16,0,0,1,.9-.12,3.75,3.75,0,0,1,.82.09,3.07,3.07,0,0,1,.74.25,2.55,2.55,0,0,1,.63.46,2.4,2.4,0,0,1,.47.66,2.65,2.65,0,0,1,.25.75,6,6,0,0,1,.08,1v5.44h-2.07V63.23a3.75,3.75,0,0,0,0-.64,1.28,1.28,0,0,0-.12-.43,1.06,1.06,0,0,0-.52-.54,1.78,1.78,0,0,0-.78-.16,2.28,2.28,0,0,0-1.12.29,3.1,3.1,0,0,0-.94.82v5.82H97.87V55.73h2.07Z"/><path class="cls-1" d="M110.16,61.1h0a3.64,3.64,0,0,1,.47-.51,3.25,3.25,0,0,1,.63-.45,3.8,3.8,0,0,1,.8-.31,3.36,3.36,0,0,1,.92-.12,3.68,3.68,0,0,1,.89.11,2.7,2.7,0,0,1,.8.33,2.61,2.61,0,0,1,.63.57,2.72,2.72,0,0,1,.43.85,2.57,2.57,0,0,1,.12.59c0,.21,0,.46,0,.74v5.49h-2.07V63.22a4.85,4.85,0,0,0,0-.58,1.62,1.62,0,0,0-.09-.43,1.12,1.12,0,0,0-.48-.58,1.65,1.65,0,0,0-.77-.17,2.48,2.48,0,0,0-1.16.28,3.06,3.06,0,0,0-1,.82v5.83h-2.07V59.93H110Z"/><path class="cls-1" d="M126.71,64.16a5.26,5.26,0,0,1-.3,1.82,4,4,0,0,1-.85,1.41,3.77,3.77,0,0,1-1.34.9,4.71,4.71,0,0,1-1.76.32,4.84,4.84,0,0,1-1.79-.32,3.77,3.77,0,0,1-1.34-.9,3.84,3.84,0,0,1-.84-1.41,5.67,5.67,0,0,1,0-3.64,4,4,0,0,1,.85-1.4,3.88,3.88,0,0,1,1.35-.91,4.66,4.66,0,0,1,1.75-.32,4.8,4.8,0,0,1,1.79.32,3.84,3.84,0,0,1,1.34.91,4,4,0,0,1,.85,1.4A5.56,5.56,0,0,1,126.71,64.16Zm-2.15,0a4.3,4.3,0,0,0-.15-1.19,2.58,2.58,0,0,0-.44-.86,1.77,1.77,0,0,0-.67-.52,2,2,0,0,0-.86-.18,2,2,0,0,0-.84.18,1.77,1.77,0,0,0-.67.52,2.57,2.57,0,0,0-.43.86,3.94,3.94,0,0,0-.16,1.19,3.9,3.9,0,0,0,.16,1.19,2.41,2.41,0,0,0,.44.86,1.87,1.87,0,0,0,.67.52,2.1,2.1,0,0,0,1.7,0,1.93,1.93,0,0,0,.66-.52,2.58,2.58,0,0,0,.44-.86A4.25,4.25,0,0,0,124.56,64.16Z"/><path class="cls-1" d="M129.08,68.39V55.73h2.07V68.39Z"/><path class="cls-1" d="M142,64.16a5.26,5.26,0,0,1-.3,1.82,4,4,0,0,1-.85,1.41,3.72,3.72,0,0,1-1.35.9,4.62,4.62,0,0,1-1.75.32,4.8,4.8,0,0,1-1.79-.32,3.68,3.68,0,0,1-1.34-.9,3.84,3.84,0,0,1-.84-1.41,5.67,5.67,0,0,1,0-3.64,4,4,0,0,1,.85-1.4A3.93,3.93,0,0,1,136,60a4.71,4.71,0,0,1,1.76-.32,4.8,4.8,0,0,1,1.79.32,3.84,3.84,0,0,1,1.34.91,3.88,3.88,0,0,1,.84,1.4A5.3,5.3,0,0,1,142,64.16Zm-2.15,0a4.3,4.3,0,0,0-.15-1.19,2.58,2.58,0,0,0-.44-.86,1.77,1.77,0,0,0-.67-.52,2.07,2.07,0,0,0-.86-.18,2,2,0,0,0-.84.18,1.77,1.77,0,0,0-.67.52,2.78,2.78,0,0,0-.44.86,4.3,4.3,0,0,0-.15,1.19,4.25,4.25,0,0,0,.15,1.19,2.59,2.59,0,0,0,.45.86,1.87,1.87,0,0,0,.67.52,2,2,0,0,0,.85.18,1.92,1.92,0,0,0,.84-.18,1.87,1.87,0,0,0,.67-.52,2.58,2.58,0,0,0,.44-.86A4.25,4.25,0,0,0,139.89,64.16Z"/><path class="cls-1" d="M149.82,68.61c0-.12,0-.26,0-.43s0-.32,0-.44h0a3.1,3.1,0,0,1-.44.31,2.84,2.84,0,0,1-.55.28,2.92,2.92,0,0,1-.65.21,4.53,4.53,0,0,1-.74.07,3.7,3.7,0,0,1-1.31-.24,3.08,3.08,0,0,1-1.15-.76,3.87,3.87,0,0,1-.8-1.33,5.72,5.72,0,0,1-.31-2,6.15,6.15,0,0,1,.31-2,4.42,4.42,0,0,1,.83-1.43,3.33,3.33,0,0,1,1.19-.87,3.29,3.29,0,0,1,1.37-.3A2.88,2.88,0,0,1,149,60a3.12,3.12,0,0,1,1,.84h0l.09-1h1.81v8.62a5.92,5.92,0,0,1-.12,1.28,3.28,3.28,0,0,1-.36.94,3,3,0,0,1-.71.84,3.87,3.87,0,0,1-1,.59,5.77,5.77,0,0,1-1.22.36,8,8,0,0,1-1.41.12c-.28,0-.56,0-.82,0l-.76-.09c-.24,0-.45-.08-.65-.13a3.13,3.13,0,0,1-.49-.16V70.59a8.91,8.91,0,0,0,1.21.29,9.45,9.45,0,0,0,1.33.1,3.65,3.65,0,0,0,2.15-.54,1.86,1.86,0,0,0,.76-1.63ZM148,67a2.21,2.21,0,0,0,.59-.08,2.67,2.67,0,0,0,.52-.2,2.62,2.62,0,0,0,.43-.27,2.23,2.23,0,0,0,.31-.3V62.33a2.84,2.84,0,0,0-.82-.66,2.33,2.33,0,0,0-1-.27,2.08,2.08,0,0,0-.41.05,1.67,1.67,0,0,0-.43.17,1.75,1.75,0,0,0-.41.33,1.89,1.89,0,0,0-.35.52,3.31,3.31,0,0,0-.24.75,5.05,5.05,0,0,0-.09,1,4.86,4.86,0,0,0,.12,1.14,2.6,2.6,0,0,0,.37.86,1.51,1.51,0,0,0,.61.54A1.74,1.74,0,0,0,148,67Z"/><path class="cls-1" d="M153.56,59.93h2.22L157.05,63q.72,1.74,1,2.58h0q.22-.64.93-2.43l1.31-3.22h2.25l-5.46,12.53h-2L157,67.93Z"/><path class="cls-1" d="M170.8,56.7v9.9h5.47v1.79h-7.61V56.7Z"/><path class="cls-1" d="M183.64,68.38a5,5,0,0,1-.84.17,7.28,7.28,0,0,1-.9.06,3.82,3.82,0,0,1-1.74-.35,1.93,1.93,0,0,1-1-1A3.26,3.26,0,0,1,179,66V61.63h-1.58v-1.7H179V57.56h2.07v2.37h2.45v1.7h-2.45v4.11a1.4,1.4,0,0,0,.15.73,1.17,1.17,0,0,0,1,.4,4.25,4.25,0,0,0,.71-.06,6,6,0,0,0,.67-.15Z"/><path class="cls-1" d="M185.27,64.33a5.8,5.8,0,0,1,.31-2,4.23,4.23,0,0,1,.83-1.46,3.42,3.42,0,0,1,1.21-.88,3.52,3.52,0,0,1,1.42-.3,2.76,2.76,0,0,1,.65.07,2.67,2.67,0,0,1,.57.16,3.43,3.43,0,0,1,.51.24,2.72,2.72,0,0,1,.44.27h0c0-.12,0-.28,0-.5V55.73h2.07V65.88c0,.56,0,1,0,1.44s0,.76,0,1.07h-1.88l-.08-.9h0a3,3,0,0,1-.44.43,2.76,2.76,0,0,1-.57.36,3.4,3.4,0,0,1-.68.24,3.47,3.47,0,0,1-.81.09,3.77,3.77,0,0,1-1.33-.24,3.27,3.27,0,0,1-1.13-.76,3.61,3.61,0,0,1-.81-1.34A5.69,5.69,0,0,1,185.27,64.33ZM189.36,67a2.25,2.25,0,0,0,.58-.08,2.57,2.57,0,0,0,.52-.21,2.69,2.69,0,0,0,.43-.29,3.19,3.19,0,0,0,.32-.3v-4a3.6,3.6,0,0,0-.82-.5,2.46,2.46,0,0,0-1-.2,1.88,1.88,0,0,0-.68.14,1.6,1.6,0,0,0-.65.44,2.51,2.51,0,0,0-.49.88,4.33,4.33,0,0,0-.2,1.42,3.44,3.44,0,0,0,.5,2A1.67,1.67,0,0,0,189.36,67Z"/><path class="cls-1" d="M196.45,66.06h2.35v2.33h-2.35Z"/></svg>