<svg xmlns="http://www.w3.org/2000/svg" xmlns:xlink="http://www.w3.org/1999/xlink" width="18" height="22" viewBox="0 0 18 22">
    <defs>
        <path id="gw0bonldta" d="M0 0L18 0 18 22 0 22z"/>
    </defs>
    <g fill="none" fill-rule="evenodd">
        <g>
            <g>
                <g transform="translate(-1230 -25) translate(31 21) translate(1199 4)">
                    <mask id="icgkcwnxkb" fill="#fff">
                        <use xlink:href="#gw0bonldta"/>
                    </mask>
                    <path fill="#231916" d="M8.704 12.277C5.631 12.108 3.25 9.62 3.282 6.614c.017-1.563.657-2.998 1.802-4.038 1.068-.971 2.457-1.494 3.949-1.494.13 0 .262.004.394.012 2.947.18 5.369 2.722 5.29 5.551l-.001.014v.013c.036 1.512-.573 2.94-1.715 4.02-1.06 1.002-2.464 1.57-3.905 1.591L9 12.281l-.087.002c-.07-.002-.139-.002-.209-.006zm9.29 9.284c-.058-4.085-2.642-7.56-6.167-8.796.71-.317 1.37-.752 1.944-1.295 1.362-1.29 2.09-2.997 2.052-4.809C15.91 3.271 13.016.23 9.496.014c-1.944-.118-3.78.51-5.165 1.769-1.37 1.245-2.135 2.957-2.156 4.82-.029 2.726 1.606 5.093 4.002 6.16C2.65 14 .064 17.476.007 21.562L0 22h1.136l.006-.427c.065-4.499 3.547-8.163 7.779-8.208l.092.002.084-.002c4.224.056 7.697 3.715 7.761 8.208l.006.427H18l-.006-.439z" mask="url(#icgkcwnxkb)"/>
                </g>
            </g>
        </g>
    </g>
</svg>
