<svg xmlns="http://www.w3.org/2000/svg" width="21" height="15" viewBox="0 0 21 15">
    <g fill="none" fill-rule="evenodd">
        <g fill="#FFF">
            <g>
                <g>
                    <g>
                        <path d="M93.52 10.786l-4.73 2.647c-.205.113-.39-.04-.39-.277V7.723c0-.241.19-.393.396-.273l4.762 2.785c.21.123.175.433-.039.55zM101 7.665C101 5.088 98.954 3 96.429 3H84.572C82.047 3 80 5.088 80 7.665v5.67C80 15.913 82.047 18 84.572 18h11.857c2.525 0 4.571-2.088 4.571-4.664V7.665z" transform="translate(-1179 -3927) translate(0 3738) translate(1099 169) translate(0 17)"/>
                    </g>
                </g>
            </g>
        </g>
    </g>
</svg>
