<svg xmlns="http://www.w3.org/2000/svg" width="19" height="20" viewBox="0 0 19 20">
    <g fill="none" fill-rule="evenodd">
        <g fill="#FFF">
            <g>
                <g>
                    <g>
                        <g>
                            <path d="M10 13.203c-1.766 0-3.203-1.437-3.203-3.203 0-1.766 1.437-3.203 3.203-3.203 1.766 0 3.203 1.437 3.203 3.203 0 1.766-1.437 3.203-3.203 3.203M10 5c-2.756 0-5 2.243-5 5s2.244 5 5 5c2.757 0 5-2.243 5-5s-2.243-5-5-5M15 6c.552 0 1-.448 1-1s-.448-1-1-1-1 .448-1 1 .448 1 1 1" transform="translate(-1134 -3924) translate(0 3738) translate(1099 169) translate(0 17) translate(35)"/>
                            <path d="M1.792 13.976V6.024c0-2.285 1.76-4.137 3.932-4.137h7.553c2.17 0 3.93 1.852 3.93 4.137v7.952c0 2.285-1.76 4.138-3.93 4.138H5.724c-2.172 0-3.932-1.853-3.932-4.138m17.208 0V6.024C19 2.697 16.438 0 13.277 0H5.724C2.563 0 0 2.697 0 6.024v7.952C0 17.303 2.563 20 5.724 20h7.553C16.437 20 19 17.303 19 13.976" transform="translate(-1134 -3924) translate(0 3738) translate(1099 169) translate(0 17) translate(35)"/>
                        </g>
                    </g>
                </g>
            </g>
        </g>
    </g>
</svg>
