<svg xmlns="http://www.w3.org/2000/svg" width="20" height="20" viewBox="0 0 20 20">
    <g fill="none" fill-rule="evenodd">
        <g>
            <g>
                <path fill="#231916" d="M3 4.65c0-.41.152-.81.43-1.113C3.74 3.195 4.183 3 4.645 3H6.85c.838 0 1.542.626 1.634 1.455.056.49.157.973.3 1.44.178.587.023 1.216-.407 1.647l-.893.895c.936 1.714 2.365 3.14 4.077 4.078l.896-.893c.43-.43 1.06-.584 1.648-.407.467.144.951.245 1.44.298.828.095 1.454.796 1.454 1.634v2.208c0 .46-.196.903-.535 1.214-.342.31-.805.467-1.264.424-1.585-.146-3.116-.566-4.546-1.247-1.394-.667-2.656-1.556-3.753-2.65-1.093-1.097-1.984-2.357-2.649-3.75-.68-1.432-1.1-2.96-1.247-4.545C3.002 4.75 3 4.7 3 4.65" transform="translate(-501 -165) translate(501 165)"/>
                <path d="M0 0H20V20H0z" transform="translate(-501 -165) translate(501 165)"/>
            </g>
        </g>
    </g>
</svg>
