<svg xmlns="http://www.w3.org/2000/svg" xmlns:xlink="http://www.w3.org/1999/xlink" width="14" height="14" viewBox="0 0 14 14">
    <defs>
        <path id="rx7a88rmra" d="M0 0L14 0 14 14 0 14z"/>
    </defs>
    <g fill="none" fill-rule="evenodd">
        <g>
            <g>
                <g transform="translate(-905 -251) translate(730 250) translate(175 1)">
                    <mask id="t1js6udpib" fill="#fff">
                        <use xlink:href="#rx7a88rmra"/>
                    </mask>
                    <path fill="#fff" d="M9.937 5.48C9.947 3 7.946.976 5.47.966 3 .956.982 2.96.972 5.43c-.01 2.504 1.972 4.515 4.464 4.528C7.91 9.97 9.927 7.965 9.937 5.48m-1.19 4.348c-1.36.978-2.86 1.326-4.496.963-1.33-.294-2.4-1.01-3.202-2.111-1.612-2.211-1.339-5.253.635-7.163C3.62-.358 6.67-.513 8.805 1.152c2.292 1.788 2.82 5.16 1.018 7.598.216.208.44.416.657.633 1.092 1.092 2.183 2.186 3.272 3.281.333.336.329.828-.002 1.131-.314.287-.766.272-1.083-.043-.565-.562-1.126-1.128-1.69-1.692L8.824 9.9l-.076-.072" mask="url(#t1js6udpib)"/>
                </g>
            </g>
        </g>
    </g>
</svg>
