<svg xmlns="http://www.w3.org/2000/svg" xmlns:xlink="http://www.w3.org/1999/xlink" width="20" height="20" viewBox="0 0 20 20">
    <defs>
        <path id="4aplynsbna" d="M0 0L11.862 0 11.862 17.405 0 17.405z"/>
    </defs>
    <g fill="none" fill-rule="evenodd">
        <g>
            <g>
                <g transform="translate(-473 -165) translate(473 165) translate(4 2)">
                    <mask id="n4ja59wi7b" fill="#fff">
                        <use xlink:href="#4aplynsbna"/>
                    </mask>
                    <path fill="#000" d="M2.965 5.801c0-1.603 1.33-2.9 2.966-2.9 1.637 0 2.966 1.297 2.966 2.9 0 1.604-1.33 2.901-2.966 2.901-1.637 0-2.966-1.297-2.966-2.9m8.897 0C11.862 2.596 9.205 0 5.931 0S0 2.597 0 5.8 5.93 17.405 5.93 17.405s5.931-8.4 5.931-11.604" mask="url(#n4ja59wi7b)"/>
                </g>
                <path d="M0 0H20V20H0z" transform="translate(-473 -165) translate(473 165)"/>
            </g>
        </g>
    </g>
</svg>
